<?xml version="1.0" encoding="utf-8"?>
<!-- Generator: Adobe Illustrator 17.0.0, SVG Export Plug-In . SVG Version: 6.00 Build 0)  -->
<!DOCTYPE svg PUBLIC "-//W3C//DTD SVG 1.1//EN" "http://www.w3.org/Graphics/SVG/1.1/DTD/svg11.dtd">
<svg version="1.1" id="Layer_1" xmlns="http://www.w3.org/2000/svg" xmlns:xlink="http://www.w3.org/1999/xlink" x="0px" y="0px"
	 width="18px" height="18px" viewBox="0 0 18 18" enable-background="new 0 0 18 18" xml:space="preserve">
<g>
	<path d="M14.232,8.348c-0.168-0.172-0.402-0.263-0.642-0.25l-2.9,0.161l1.596-1.818c0.227-0.259,0.292-0.604,0.204-0.913
		c-0.046-0.211-0.174-0.404-0.371-0.527c-0.006-0.004-3.815-2.217-3.815-2.217C7.993,2.605,7.601,2.645,7.333,2.884l-1.861,1.66
		C5.129,4.849,5.099,5.375,5.405,5.718c0.306,0.343,0.832,0.373,1.174,0.067L7.99,4.527l1.166,0.677L7.098,7.548
		c-0.854,0.139-1.622,0.533-2.224,1.1l1.075,1.075c0.486-0.442,1.131-0.712,1.838-0.712c1.508,0,2.735,1.227,2.735,2.735
		c0,0.707-0.27,1.352-0.711,1.838l1.075,1.075c0.716-0.761,1.155-1.785,1.155-2.913c0-0.672-0.156-1.307-0.433-1.872l1.123-0.063
		l-0.273,3.35c-0.037,0.458,0.304,0.859,0.761,0.897c0.023,0.002,0.046,0.003,0.068,0.003c0.429,0,0.793-0.329,0.828-0.764
		l0.351-4.301C14.484,8.756,14.399,8.52,14.232,8.348z"/>
	<circle cx="12.691" cy="3.392" r="1.392"/>
	<path d="M7.786,14.481c-1.508,0-2.735-1.227-2.735-2.735c0-0.568,0.174-1.097,0.472-1.534L4.437,9.125
		c-0.566,0.722-0.905,1.632-0.905,2.621C3.532,14.096,5.437,16,7.786,16c0.989,0,1.898-0.338,2.621-0.905l-1.087-1.086
		C8.883,14.307,8.355,14.481,7.786,14.481z"/>
</g>
<rect fill="none" width="18" height="18"/>
</svg>
